# xmcd
#
# Track frame offsets: 
#        150
#        15243
#        32893
#        58816
#        83766
#        99631
#        122787
#        140483
#        158903
#        173041
#        185381
#        200201
#        215291
#        230020
#        266961
#        296133
#
# Disc length: 4514 seconds
#
# Revision: 0
# Processed by: cddbd v1.5.2PL0 Copyright (c) Steve Scherf et al.
# Submitted via: ExactAudioCopy v0.90b4
#
DISCID=ef11a010
DTITLE=Various Artist - Big Notes For Little Bill - A Tribute To The 
DTITLE=Music Of Little Bill Englehart
DYEAR=2009
DGENRE=Blues
TTITLE0=Step Right Up - Polly O'Keary and the Rhythm Method
TTITLE1=When I First Get Up - Bump Kitchen
TTITLE2=Another Rainy Day - The Randy Oxford Band with Patti Allen
TTITLE3=What I'm Doin' Wrong - Duffy Bishop and Chris Carlson
TTITLE4=Texas - Billy Roy Danger and the Rectifiers
TTITLE5=Thangs Gone Be - Immanuel Presbyterian Blues Vespers All-Stars
TTITLE5=with Leanne Trevalyan
TTITLE6=Cute - Rod Cook and Toast
TTITLE7=Wine and Whiskey - Dick Powell with Billy Stapleton
TTITLE8=Better Things to Do - Merrilee Rush with Billy Mack and Rusty Wi
TTITLE8=lliams
TTITLE9=Comin' Home Again - Henry Cooper
TTITLE10=What It Shall Be - Alice Stuart and the Formerlys
TTITLE11=Sweet Cucumber - Jr. Cadillac
TTITLE12=Simply Over - Eric Madis and Blue Madness
TTITLE13=Never Been to Mississippi - Mark Whitman with Chris Leighton 
TTITLE13=& Terry Morgan
TTITLE14=I Love An Angel - Little Bill and the Blue Notes with Heather M
TTITLE14=ueller
TTITLE15=Big Notes For Little Bill
EXTD=
EXTT0=
EXTT1=
EXTT2=
EXTT3=
EXTT4=
EXTT5=
EXTT6=
EXTT7=
EXTT8=
EXTT9=
EXTT10=
EXTT11=
EXTT12=
EXTT13=
EXTT14=
EXTT15=
PLAYORDER=
